<?xml version="1.0" encoding="utf-8"?>
<!-- Generator: Adobe Illustrator 15.1.0, SVG Export Plug-In . SVG Version: 6.00 Build 0)  -->
<!DOCTYPE svg PUBLIC "-//W3C//DTD SVG 1.1//EN" "http://www.w3.org/Graphics/SVG/1.1/DTD/svg11.dtd">
<svg version="1.1"
	 id="svg2" xmlns:svg="http://www.w3.org/2000/svg" xmlns:rdf="http://www.w3.org/1999/02/22-rdf-syntax-ns#" xmlns:dc="http://purl.org/dc/elements/1.1/" xmlns:cc="http://creativecommons.org/ns#"
	 xmlns="http://www.w3.org/2000/svg" xmlns:xlink="http://www.w3.org/1999/xlink" x="0px" y="0px" width="350px" height="189.55px"
	 viewBox="0 342.55 350 189.55" enable-background="new 0 342.55 350 189.55" xml:space="preserve">
<g>
	<g>
		<g>
			<g>
				<g>
					<g id="g582">
					</g>
					<g>
						<g>
							<g id="g608">
							</g>
							<g id="g10" transform="matrix(1.3333333,0,0,-1.3333333,0,1122.52)">
								<g id="g2152" transform="translate(394.5637,693.0347)">
									<path id="path2154" fill="#002361" d="M-186.7,30.5l11.2,19.4l-19.4,11.2l-11.2-19.4L-186.7,30.5z"/>
								</g>
								<g id="g2156" transform="translate(393.3019,714.0454)">
									<path id="path2158" fill="#002361" d="M-189.6,77.9L-189.6,77.9L-189.6,77.9V55.5h22.4v22.4H-189.6z"/>
								</g>
								<g id="g2160" transform="translate(385.1496,657.9048)">
									<path id="path2162" fill="#002361" d="M-208-48.7l26.5,15.3l-4.1,7.1l-26.5-15.3L-208-48.7z"/>
								</g>
								<path id="path2164" fill="#002361" d="M241.5,704.1h8.2v30.6h-8.2V704.1z"/>
								<g id="g2166" transform="translate(398.009,670.7637)">
									<path id="path2168" fill="#002361" d="M-179-19.7l7.1-4.1l15.3,26.5l-7.1,4.1L-179-19.7z"/>
								</g>
								<g id="g2170" transform="translate(379.1838,670.7637)">
									<path id="path2172" fill="#002361" d="M-221.4-19.7L-221.4-19.7L-221.4-19.7v-30.6l0,0h8.199v30.6H-221.4z"/>
								</g>
								<g id="g2174" transform="translate(392.0412,664.7964)">
									<path id="path2176" fill="#002361" d="M-192.4-33.2l19.4,19.4l-11.2,11.2L-203.6-22L-192.4-33.2z"/>
								</g>
								<g id="g2178" transform="translate(392.0412,683.6216)">
									<path id="path2180" fill="#002361" d="M-192.4,9.3l19.4,19.4l-11.2,11.2l-19.4-19.4L-192.4,9.3z"/>
								</g>
								<g id="g2182" transform="translate(388.5959,677.6543)">
									<path id="path2184" fill="#002361" d="M-200.2-4.2L-200.2-4.2l-15.3,4.1l-7.1-26.5l15.3-4.1L-200.2-4.2z"/>
								</g>
								<g id="g2186" transform="translate(402.715,678.9146)">
									<path id="path2188" fill="#002361" d="M-168.3-1.3l7.1,26.5l-15.3,4.1l-7.1-26.5L-168.3-1.3z"/>
								</g>
								<g id="g2190" transform="translate(400.1926,707.1538)">
									<path id="path2192" fill="#002361" d="M-174,62.4l-7.1-26.5l15.3-4.1l7.1,26.5L-174,62.4z"/>
								</g>
								<g id="g2194" transform="translate(385.1496,709.3379)">
									<path id="path2196" fill="#002361" d="M-208,67.3l-4.1-15.3l26.5-7.1l4.1,15.3L-208,67.3L-208,67.3L-208,67.3z"/>
								</g>
								<path id="path2198" fill="#002361" d="M89.4,783.7H67v-22.4h22.4V783.7z"/>
								<g id="g2200" transform="translate(340.6096,699.9253)">
									<path id="path2202" fill="#002361" d="M-308.4,46.1l19.4,11.2l-11.2,19.4l-19.4-11.2L-308.4,46.1L-308.4,46.1L-308.4,46.1z
										"/>
								</g>
								<g id="g2204" transform="translate(393.3019,720.9351)">
									<path id="path2206" fill="#002361" d="M-189.6,93.4l-26.5,15.3l-4.1-7.1l26.5-15.3L-189.6,93.4z"/>
								</g>
								<g id="g2208" transform="translate(356.9113,725.6416)">
									<path id="path2210" fill="#002361" d="M-271.6,104l-26.5-15.3l4.1-7.1l26.5,15.3L-271.6,104z"/>
								</g>
								<path id="path2212" fill="#002361" d="M146.6,837.9H116v-8.2h30.6V837.9z"/>
								<g id="g2214" transform="translate(392.0412,716.228)">
									<path id="path2216" fill="#002361" d="M-192.4,82.8l-26.5-15.3l4.1-7.1l0,0l26.499,15.3l0,0L-192.4,82.8z"/>
								</g>
								<g id="g2218" transform="translate(383.8889,723.4565)">
									<path id="path2220" fill="#002361" d="M-210.8,99.1l-26.5,7.1l-4.099-15.3l26.5-7.1L-210.8,99.1z"/>
								</g>
								<g id="g2222" transform="translate(367.5851,714.0444)">
									<path id="path2224" fill="#002361" d="M-247.6,77.9l-26.5,7.1l-4.1-15.3l26.5-7.1L-247.6,77.9z"/>
								</g>
								<g id="g2226" transform="translate(374.4767,714.0444)">
									<path id="path2228" fill="#002361" d="M-232,77.9L-232,77.9l4.1-15.3l26.5,7.1l-4.1,15.3L-232,77.9z"/>
								</g>
								<g id="g2230" transform="translate(366.3234,725.6416)">
									<path id="path2232" fill="#002361" d="M-250.4,104l-26.5-7.1l4.1-15.3l26.5,7.1L-250.4,104z"/>
								</g>
								<g id="g2234" transform="translate(350.0197,716.2285)">
									<path id="path2236" fill="#002361" d="M-287.2,82.8l-26.5-7.1l4.1-15.3l26.5,7.1L-287.2,82.8z"/>
								</g>
								<g id="g2238" transform="translate(348.7609,695.2183)">
									<path id="path2240" fill="#002361" d="M-290,35.4l15.3,4.1l-7.1,26.5l-15.3-4.1L-290,35.4L-290,35.4z"/>
								</g>
								<g id="g2242" transform="translate(360.3566,670.7637)">
									<path id="path2244" fill="#002361" d="M-263.9-19.7l11.2-19.4l19.4,11.2l-11.2,19.4L-263.9-19.7z"/>
								</g>
								<g id="g2246" transform="translate(379.1818,661.3511)">
									<path id="path2248" fill="#002361" d="M-221.4-40.9L-240.799-29.7L-252-49.1l19.4-11.199L-221.4-40.9L-221.4-40.9z"/>
								</g>
								<path id="path2250" fill="#002361" d="M21,734.8h-8.2v-30.6H21V734.8z"/>
								<g id="g2252" transform="translate(348.7609,662.6118)">
									<path id="path2254" fill="#002361" d="M-290-38.1l26.5-15.3l4.1,7.1L-285.9-31L-290-38.1z"/>
								</g>
								<g id="g2256" transform="translate(337.1642,677.6538)">
									<path id="path2258" fill="#002361" d="M-316.2-4.2l15.3-26.5l7.1,4.1l-15.3,26.5L-316.2-4.2z"/>
								</g>
								<g id="g2260" transform="translate(348.7609,695.2183)">
									<path id="path2262" fill="#002361" d="M-290,35.4L-290,35.4L-290,35.4l-26.5,15.3l0,0l-4.1-7.1l26.5-15.3L-290,35.4z"/>
								</g>
								<g id="g2264" transform="translate(344.0539,680.1763)">
									<path id="path2266" fill="#002361" d="M-300.6,1.5l-7.1,26.5l-15.3-4l7.1-26.5L-300.6,1.5z"/>
								</g>
								<g id="g2268" transform="translate(353.466,677.6543)">
									<path id="path2270" fill="#002361" d="M-279.4-4.2l7.1-26.5l15.3,4.1l-7.1,26.5L-279.4-4.2z"/>
								</g>
								<g id="g2272" transform="translate(353.466,687.0679)">
									<path id="path2274" fill="#002361" d="M-279.4,17.1l-19.4,19.4L-310,25.3l19.4-19.4L-279.4,17.1z"/>
								</g>
								<g id="g2276" transform="translate(344.0539,670.7637)">
									<path id="path2278" fill="#002361" d="M-300.6-19.7l19.4-19.4l11.2,11.2l-19.4,19.4L-300.6-19.7z"/>
								</g>
								<g id="g2280" transform="translate(360.3566,661.3511)">
									<path id="path2282" fill="#002361" d="M-263.9-40.9l19.4-19.4l11.2,11.199l-19.4,19.4L-263.9-40.9z"/>
								</g>
								<g id="g2284" transform="translate(379.1838,670.7637)">
									<path id="path2286" fill="#002361" d="M-221.4-19.7l-11.2,11.2L-252-27.9l11.2-11.2L-221.4-19.7L-221.4-19.7L-221.4-19.7z"
										/>
								</g>
								<g id="g2288" transform="translate(392.0412,683.6216)">
									<path id="path2290" fill="#002361" d="M-192.4,9.3l-11.2-19.4l19.4-11.2L-173-1.9L-192.4,9.3z"/>
								</g>
								<g id="g2292" transform="translate(386.4113,669.5024)">
									<path id="path2294" fill="#002361" d="M-205.1-22.5L-220.4-49l7.1-4.1l15.3,26.5L-205.1-22.5z"/>
								</g>
								<g id="g2296" transform="translate(398.008,689.5894)">
									<path id="path2298" fill="#002361" d="M-179,22.8l7.1-4.1l15.3,26.5l-7.1,4.1L-179,22.8z"/>
								</g>
								<path id="path2300" fill="#002361" d="M142.5,814.4H120V792h22.4v22.4H142.5z"/>
								<path id="path2302" fill="#002361" d="M169.001,799H199.6v8.2h-30.599V799z"/>
								<path id="path2304" fill="#002361" d="M93.5,807.3H62.8V799h30.6v8.3H93.5z"/>
								<g id="g2306" transform="translate(353.466,677.6543)">
									<path id="path2308" fill="#002361" d="M-279.4-4.2l-11.2,19.4L-310,4l11.2-19.4L-279.4-4.2z"/>
								</g>
								<g id="g2310" transform="translate(344.0539,689.5898)">
									<path id="path2312" fill="#002361" d="M-300.6,22.8l-15.3,26.5l-7.1-4.1l15.3-26.5L-300.6,22.8z"/>
								</g>
								<g id="g2314" transform="translate(353.466,668.2417)">
									<path id="path2316" fill="#002361" d="M-279.4-25.4l15.3-26.5l7.1,4.1l-15.3,26.5L-279.4-25.4z"/>
								</g>
								<g id="g2318" transform="translate(361.2209,624.0786)">
									<path id="path2320" fill="#0081C8" d="M-261.9-125c0,15.1-12.2,27.3-27.3,27.3s-27.3-12.2-27.3-27.3
										c0-15.1,12.2-27.3,27.3-27.3c0.8,0,1.6,0,2.4,0.1c-0.1,0.7-0.1,1.4-0.1,2.2s0,1.6,0.1,2.4c-0.8-0.1-1.6-0.1-2.4-0.1
										c-12.6,0-22.8,10.2-22.8,22.8c0,12.6,10.2,22.8,22.8,22.8s22.8-10.2,22.8-22.8c0-10.1-6.6-18.7-15.7-21.601
										c-0.2-1.099-0.3-2.199-0.3-3.4c0-0.5,0-0.899,0-1.4C-270.6-148.4-261.9-137.7-261.9-125"/>
								</g>
								<g id="g2322" transform="translate(397.5705,624.0786)">
									<path id="path2324" fill="#EE2E4E" d="M-179.9-125c0-15.1-12.2-27.3-27.3-27.3c-14.3,0-26,11-27.2,24.899
										c1.6-0.2,3.2-0.5,4.7-1c1.6-11,11.1-19.4,22.5-19.4c12.6,0,22.8,10.2,22.8,22.8s-10.2,22.8-22.8,22.8
										c-12.1,0-22-9.4-22.7-21.3c-1.5,0.4-3,0.6-4.5,0.8c1.1,14.101,12.9,25.1,27.2,25.1C-192.2-97.7-179.9-109.9-179.9-125"/>
								</g>
								<g id="g2326" transform="translate(387.0715,615.958)">
									<path id="path2328" fill="#00A54F" d="M-203.6-143.3c-0.7-11.9-10.6-21.3-22.701-21.3c-12.599,0-22.8,10.2-22.8,22.8
										c0,10.1,6.6,18.7,15.7,21.6c0.2,1.1,0.2,2.2,0.2,3.401c0,0.5,0,0.899,0,1.4c-11.8-3-20.4-13.7-20.4-26.4
										c0-15.1,12.2-27.3,27.3-27.3C-211.9-169.1-200.2-158-199.1-144C-200.7-143.9-202.2-143.7-203.6-143.3 M-226.3-119.1
										c11.401,0,20.9-8.4,22.5-19.4c1.5-0.5,3.1-0.8,4.701-1c-1.2,14-12.9,24.9-27.201,24.9c-0.8,0-1.6,0-2.399-0.1
										c0.1-0.7,0.1-1.4,0.1-2.2s0-1.6-0.1-2.4C-227.9-119.2-227.1-119.1-226.3-119.1"/>
								</g>
								<g id="g2330" transform="translate(370.2834,615.7231)">
									<path id="path2332" fill="#FBB131" d="M-241.5-143.8c-1.1-14.1-12.9-25.1-27.2-25.1c-15.1,0-27.3,12.2-27.3,27.3
										c0,12.7,8.7,23.4,20.4,26.4c0-0.5,0-0.9,0-1.4c0-1.2-0.1-2.3-0.3-3.4c-9.1-3-15.7-11.5-15.7-21.601
										c0-12.6,10.2-22.8,22.8-22.8c12.1,0,22,9.4,22.7,21.3C-244.5-143.4-243-143.7-241.5-143.8 M-271.1-119
										c0.1,0.8,0.1,1.6,0.1,2.4c0,0.7,0,1.5-0.1,2.2c0.8,0.1,1.6,0.1,2.4,0.1c14.3,0,26-10.9,27.2-24.9c-1.6,0.2-3.2,0.5-4.7,1
										c-1.6,11-11.1,19.4-22.5,19.4C-269.5-118.9-270.3-118.9-271.1-119"/>
								</g>
								<g id="g2334" transform="translate(371.008,617.0889)">
									<path id="path2336" fill="#231F20" d="M-239.8-140.7c-11.4,0-20.9,8.4-22.5,19.4c-1.5,0.5-3.1,0.8-4.7,1
										c1.2-14,12.9-24.9,27.2-24.9c0.8,0,1.6,0,2.401,0.1c-0.1,0.699-0.1,1.4-0.1,2.199c0,0.801,0,1.6,0.1,2.4
										C-238.2-140.7-239-140.7-239.8-140.7 M-239.8-90.7c-14.3,0-26.1-11.1-27.2-25.1c1.5-0.1,3-0.4,4.5-0.8
										c0.7,11.9,10.6,21.3,22.7,21.3c12.6,0,22.7-10.2,22.7-22.8c0-10.1-6.601-18.7-15.7-21.601c-0.2-1.099-0.3-2.199-0.3-3.4
										c0-0.5,0-0.899,0-1.4c11.801,3,20.4,13.7,20.4,26.4C-212.5-102.9-224.8-90.7-239.8-90.7"/>
								</g>
								<g id="g2338" transform="translate(335.8127,638.145)">
									<path id="path2340" fill="#002361" d="M-319.2-93.3h-5.7v30.2h-8.3v5.3h22.3v-5.3h-8.3V-93.3z"/>
								</g>
								<g id="g2342" transform="translate(357.8713,638.1431)">
									<path id="path2344" fill="#002361" d="M-269.5-93.3h-6.8l-8.5,15.3l-3.2-4.5v-10.8h-5.7v35.4h5.7v-15.9h0.1l10.8,16h6.5
										L-281-73.2L-269.5-93.3z"/>
								</g>
								<g id="g2346" transform="translate(363.7541,638.145)">
									<path id="path2348" fill="#002361" d="M-256.2-93.3h-5.7V-78l-9.4,20.2h5.9l6.3-13.9h0.2l6.3,13.9h5.9l-9.4-20.2v-15.3
										H-256.2z"/>
								</g>
								<g id="g2350" transform="translate(385.3889,638.145)">
									<path id="path2352" fill="#002361" d="M-207.4-93.3h-19.9v5.1l0.1,0.1l13.2,17c0.6,0.8,1.1,1.7,1.1,3.3
										c0,2.9-2.2,4.6-4.3,4.6c-1.3,0-2.4-0.4-3.2-1.2c-0.801-0.801-1.3-2.101-1.4-4v-0.3h-5.5v0.3c0,3,1.1,5.9,2.9,7.8
										c1.8,1.9,4.1,2.9,6.8,2.9c3,0,5.5-1,7.299-2.9c1.901-1.9,2.801-4.4,2.801-7.4c0-2.5-0.7-4.5-2.5-6.8l-10-13l0.1-0.1h12.5
										V-93.3L-207.4-93.3z"/>
								</g>
								<g id="g2354" transform="translate(402.343,638.145)">
									<path id="path2356" fill="#002361" d="M-169.2-93.3h-19.9v5.1l0.1,0.1l13.2,17c0.601,0.8,1.1,1.7,1.1,3.3
										c0,2.9-2.3,4.6-4.299,4.6c-1.301,0-2.4-0.4-3.201-1.2c-0.8-0.801-1.299-2.101-1.4-4v-0.3h-5.5v0.3c0,3,1.1,5.9,2.9,7.8
										c1.8,1.9,4.1,2.9,6.801,2.9c3.1,0,5.5-1,7.299-2.9c1.9-1.9,2.801-4.4,2.801-7.4c0-2.5-0.7-4.5-2.5-6.8l-10-13l0.1-0.1h12.5
										V-93.3L-169.2-93.3z"/>
								</g>
								<g id="g2358" transform="translate(371.3342,647.4106)">
									<path id="path2360" fill="#002361" d="M-239.1-72.4c-3.3,0-5.7-2.5-5.7-5.9v-12.8c0-3.7,2.3-6.2,5.7-6.2
										c3.4,0,5.7,2.5,5.7,6.2v12.8C-233.4-74.8-235.799-72.4-239.1-72.4 M-239.1-102.8c-6.5,0-11.1,4.5-11.1,10.8v14.6
										c0,6.3,4.6,10.7,11.1,10.7c6.6,0,11.1-4.4,11.1-10.7V-92C-228-98.3-232.7-102.8-239.1-102.8"/>
								</g>
								<g id="g2362" transform="translate(343.8342,647.4106)">
									<path id="path2364" fill="#002361" d="M-301.1-72.4c-3.3,0-5.7-2.5-5.7-5.9v-12.8c0-3.7,2.3-6.2,5.7-6.2
										c3.4,0,5.7,2.5,5.7,6.2v12.8C-295.4-74.8-297.8-72.4-301.1-72.4 M-301.1-102.8c-6.5,0-11.1,4.5-11.1,10.8v14.6
										c0,6.3,4.6,10.7,11.1,10.7c6.6,0,11.1-4.4,11.1-10.7V-92C-290-98.3-294.7-102.8-301.1-102.8"/>
								</g>
								<g id="g2366" transform="translate(390.9357,647.4106)">
									<path id="path2368" fill="#002361" d="M-194.9-72.4c-3.7,0-4.4-2.8-4.4-5.2v-14.5c0-3.5,1.5-5.2,4.4-5.2
										c3,0,4.4,1.7,4.4,5.2v14.5C-190.5-75.2-191.2-72.4-194.9-72.4 M-194.9-102.8c-3.7,0-9.899,2.2-9.899,10.3v15.4
										c0,6.201,3.999,10.3,9.899,10.3s9.9-4.099,9.9-10.3v-15.4C-185-100.6-191.2-102.8-194.9-102.8"/>
								</g>
								<g id="g2370" transform="translate(407.5158,647.4106)">
									<path id="path2372" fill="#002361" d="M-157.5-72.4c-3.7,0-4.4-2.8-4.4-5.2v-14.5c0-3.5,1.4-5.2,4.4-5.2s4.4,1.7,4.4,5.2
										v14.5C-153.1-75.2-153.8-72.4-157.5-72.4 M-157.5-102.8c-3.7,0-9.9,2.2-9.9,10.3v15.4c0,6.201,4,10.3,9.9,10.3
										s9.9-4.099,9.9-10.3v-15.4C-147.6-100.6-153.8-102.8-157.5-102.8"/>
								</g>
								<g id="g2374" transform="translate(397.549,665.0552)">
									<path id="path2376" fill="#002361" d="M-180-32.6h2.6v-6.599h0.9v6.599h2.6V-32h-6V-32.6H-180z"/>
								</g>
								<g id="g2378" transform="translate(401.3703,665.2544)">
									<path id="path2380" fill="#002361" d="M-171.4-32.1l-2.1-5.199h-0.1l-2.3,5.199h-1v-7.3h0.7v5.7l0,0l2-4.6h0.9l1.9,4.7h0.1
										v-5.9h0.7v7.299h-0.8V-32.1z"/>
								</g>
							</g>
						</g>
					</g>
				</g>
			</g>
		</g>
	</g>
</g>
</svg>
